# xmcd CD database file
#
# Track frame offsets:
#	150
#	15600
#	29486
#	44400
#	61034
#	72150
#	94800
#	105220
#	120450
#	144600
#	159073
#	184268
#	213378
#	230473
#	246748
#
# Disc length: 3470 seconds
#
# Revision: 0
# Processed by: cddbd v1.4PL0 Copyright (c) Steve Scherf et al.
# Submitted via: CDex 1.51
#
DISCID=c80d8c0f
DTITLE=Mary Lockridge - Jazz with love
DYEAR=1999
DGENRE=Jazz
TTITLE0=All of me
TTITLE1=Summertime
TTITLE2=Besame Mucho
TTITLE3=What a difference a day made
TTITLE4=I can't give you anything but love baby
TTITLE5=The nearness of you
TTITLE6=Straighten up and fly right
TTITLE7=Mary's Blues
TTITLE8=Mood Indigo/Solitude
TTITLE9=You're Nobody 'til somebody loves you
TTITLE10=Blue Prelude
TTITLE11=Out of Nowhere by the Millionares
TTITLE12=Because of you
TTITLE13=Lucky SoAndSo
TTITLE14=Take the A Train
EXTD=YEAR: 1999
EXTT0=
EXTT1=
EXTT2=
EXTT3=
EXTT4=
EXTT5=
EXTT6=
EXTT7=
EXTT8=
EXTT9=
EXTT10=
EXTT11=
EXTT12=
EXTT13=
EXTT14=
PLAYORDER=
